<svg width="132" height="26" viewBox="0 0 132 26" fill="none" xmlns="http://www.w3.org/2000/svg">
<path d="M2.29749 20.8823C1.56971 20.514 1.00604 19.9989 0.603626 19.3385C0.201209 18.6781 0 17.9199 0 17.0638V17.0365C0 15.7516 0.476622 14.7344 1.42987 13.9834C2.38311 13.2324 3.72735 12.8065 5.46117 12.7058L10.9495 12.3648V14.6193L5.93494 14.933C5.10299 14.9877 4.46655 15.1876 4.02417 15.5344C3.5818 15.8811 3.36061 16.3401 3.36061 16.9142V16.9271C3.36061 17.5199 3.58465 17.9861 4.03131 18.327C4.47796 18.668 5.07303 18.8392 5.81364 18.8392C6.46436 18.8392 7.04373 18.7069 7.5546 18.4436C8.06547 18.1788 8.46931 17.8192 8.76756 17.3645C9.0658 16.9099 9.21421 16.3948 9.21421 15.8207V11.4756C9.21421 10.7476 8.98589 10.1707 8.52925 9.74766C8.0726 9.32466 7.41618 9.11173 6.55712 9.11173C5.76227 9.11173 5.1244 9.28294 4.64635 9.62393C4.16687 9.96492 3.86863 10.4052 3.75161 10.9418L3.7245 11.0641H0.609334L0.622177 10.9001C0.694955 10.044 0.97893 9.27718 1.47553 8.59808C1.97213 7.91898 2.66138 7.38376 3.54184 6.99242C4.42231 6.60107 5.46831 6.4054 6.67841 6.4054C7.88852 6.4054 8.92168 6.60539 9.80214 7.00681C10.6826 7.40822 11.3647 7.9679 11.8485 8.68729C12.3322 9.40667 12.5734 10.2541 12.5734 11.2282V21.1888H9.21279V18.9615H9.13145C8.86031 19.4622 8.50784 19.8996 8.07403 20.2737C7.64022 20.6478 7.14647 20.9341 6.58994 21.1341C6.03483 21.3341 5.43977 21.4348 4.8076 21.4348C3.85864 21.4348 3.02098 21.2506 2.29321 20.8809L2.29749 20.8823Z" fill="white"/>
<path d="M17.224 20.8276C16.4877 20.3946 15.9254 19.773 15.5373 18.963C15.1492 18.153 14.9551 17.1919 14.9551 16.0797V6.7061H18.3157V15.3963C18.3157 16.425 18.5554 17.2206 19.0335 17.7803C19.5115 18.34 20.235 18.6206 21.2011 18.6206C21.8418 18.6206 22.3998 18.4724 22.875 18.176C23.3488 17.8796 23.7169 17.4681 23.9795 16.9401C24.2421 16.412 24.3719 15.7977 24.3719 15.0956V6.7061H27.7468V21.1888H24.3719V18.9213H24.3049C23.9338 19.6953 23.383 20.3154 22.651 20.7787C21.9189 21.2434 21.007 21.4751 19.9139 21.4751C18.8209 21.4751 17.9604 21.2593 17.224 20.8262V20.8276Z" fill="white"/>
<path d="M32.2319 20.4924C31.5041 19.8363 31.1417 18.7615 31.1417 17.2681V0H34.5708V16.9947C34.5708 17.6969 34.7263 18.1817 35.0388 18.4493C35.3499 18.7184 35.8094 18.8522 36.4145 18.8522C36.5857 18.8522 36.737 18.845 36.8683 18.8321C36.9996 18.8191 37.1237 18.8076 37.2407 18.7975V21.3528C37.0424 21.3801 36.7998 21.4074 36.5158 21.4348C36.2318 21.4621 35.9122 21.4751 35.5611 21.4751C34.0699 21.4751 32.9611 21.147 32.2348 20.4909L32.2319 20.4924Z" fill="white"/>
<path d="M39.3598 0.307897H42.7347V9.13906H42.8018C43.1814 8.26429 43.7479 7.59095 44.5028 7.11759C45.2577 6.64424 46.1667 6.40684 47.2327 6.40684C48.2986 6.40684 49.1705 6.64568 49.9297 7.12479C50.6889 7.60246 51.2754 8.27292 51.6921 9.13331C52.1073 9.99369 52.3157 11.008 52.3157 12.1734V21.1916H48.9408V12.8439C48.9408 11.7332 48.6739 10.8613 48.1417 10.2268C47.608 9.59371 46.8588 9.27718 45.8927 9.27718C45.2605 9.27718 44.7068 9.42969 44.2331 9.73471C43.7593 10.0397 43.3911 10.4584 43.1286 10.9922C42.866 11.5245 42.7361 12.1418 42.7361 12.8439V21.1916H39.3613V0.307897H39.3598Z" fill="white"/>
<path d="M57.4315 20.5672C56.3926 19.9615 55.5864 19.0968 55.0127 17.9717C54.4391 16.8465 54.1522 15.5056 54.1522 13.9474V13.9201C54.1522 12.372 54.4419 11.0354 55.0199 9.91024C55.5978 8.78512 56.4069 7.92042 57.4458 7.3147C58.4846 6.70898 59.699 6.40684 61.0904 6.40684C62.4817 6.40684 63.7132 6.71042 64.7564 7.3147C65.7995 7.92042 66.61 8.78368 67.1894 9.90449C67.7674 11.0253 68.057 12.3633 68.057 13.9215V13.9489C68.057 15.5157 67.7702 16.8609 67.1965 17.9861C66.6229 19.1112 65.8166 19.9744 64.7778 20.5758C63.7389 21.1772 62.5145 21.4779 61.1061 21.4779C59.6976 21.4779 58.4718 21.1758 57.4344 20.5701L57.4315 20.5672ZM62.974 18.1702C63.4977 17.7976 63.9016 17.2523 64.187 16.5372C64.471 15.8221 64.6137 14.9589 64.6137 13.9474V13.9201C64.6137 12.9187 64.4695 12.0626 64.1798 11.3519C63.8902 10.6411 63.482 10.1002 62.954 9.72608C62.426 9.35344 61.8039 9.1664 61.0904 9.1664C60.3769 9.1664 59.7832 9.35344 59.2538 9.72608C58.7258 10.1002 58.3148 10.6411 58.0209 11.3519C57.7269 12.0626 57.5799 12.9187 57.5799 13.9201V13.9474C57.5799 14.9589 57.7269 15.8221 58.0209 16.5372C58.3148 17.2523 58.7258 17.7961 59.2538 18.1702C59.7818 18.5443 60.404 18.7299 61.1175 18.7299C61.831 18.7299 62.4503 18.5429 62.974 18.1702Z" fill="white"/>
<path d="M69.9321 6.7061H73.2927V9.20668H73.3741C73.591 8.33191 73.9863 7.64706 74.5599 7.15068C75.1336 6.65431 75.8357 6.4054 76.6676 6.4054C76.876 6.4054 77.0743 6.41835 77.2641 6.44569C77.4539 6.47302 77.6123 6.50467 77.7379 6.54064V9.61529C77.6023 9.56062 77.4097 9.51458 77.1614 9.47861C76.9131 9.44264 76.6434 9.42394 76.3551 9.42394C75.7229 9.42394 75.1764 9.55343 74.7155 9.81384C74.2546 10.0728 73.9021 10.4541 73.6581 10.9548C73.414 11.4555 73.2927 12.0655 73.2927 12.7849V21.1873H69.9321V6.7061Z" fill="white"/>
<path d="M82.6511 6.7061H79.2762V21.1888H82.6511V6.7061Z" fill="white"/>
<path d="M87.2318 20.4924C86.504 19.8363 86.1416 18.7615 86.1416 17.2681V0H89.5707V16.9947C89.5707 17.6969 89.7262 18.1817 90.0387 18.4493C90.3498 18.7184 90.8093 18.8522 91.4144 18.8522C91.5856 18.8522 91.7369 18.845 91.8682 18.8321C91.9994 18.8191 92.1236 18.8076 92.2406 18.7975V21.3528C92.0423 21.3801 91.7997 21.4074 91.5157 21.4348C91.2317 21.4621 90.9121 21.4751 90.561 21.4751C89.0698 21.4751 87.961 21.147 87.2346 20.4909L87.2318 20.4924Z" fill="white"/>
<path d="M95.233 25.9511C94.922 25.9194 94.6608 25.8849 94.4539 25.8489V23.2663C94.5809 23.285 94.7379 23.3066 94.9277 23.334C95.1174 23.3613 95.3344 23.3742 95.5784 23.3742C96.2291 23.3742 96.7442 23.262 97.1238 23.039C97.5034 22.816 97.8017 22.3988 98.0186 21.7887L98.2212 21.2017L93.0583 6.7061H96.73L100.307 19.0033L99.7923 18.2925H100.51L99.995 19.0033L103.572 6.7061H107.123L101.946 21.6808C101.585 22.7369 101.147 23.5814 100.631 24.2159C100.116 24.849 99.4955 25.3036 98.7677 25.5828C98.04 25.8604 97.1795 26 96.1863 26C95.8609 26 95.5427 25.9842 95.2316 25.9525L95.233 25.9511Z" fill="white"/>
<path d="M106.698 20.8334C106.318 20.4507 106.128 19.9859 106.128 19.4392C106.128 18.8925 106.318 18.4148 106.698 18.0321C107.077 17.6494 107.542 17.458 108.093 17.458C108.644 17.458 109.096 17.6494 109.476 18.0321C109.856 18.4148 110.045 18.8838 110.045 19.4392C110.045 19.9946 109.856 20.4507 109.476 20.8334C109.096 21.2161 108.636 21.4074 108.093 21.4074C107.551 21.4074 107.077 21.2161 106.698 20.8334Z" fill="white"/>
<path d="M116.11 6.7061H112.735V21.1888H116.11V6.7061Z" fill="white"/>
<path d="M121.374 20.5672C120.336 19.9615 119.529 19.0968 118.956 17.9717C118.382 16.8465 118.095 15.5056 118.095 13.9474V13.9201C118.095 12.372 118.385 11.0354 118.963 9.91024C119.541 8.78512 120.35 7.92042 121.389 7.3147C122.428 6.70898 123.643 6.40684 125.033 6.40684C126.423 6.40684 127.656 6.71042 128.699 7.3147C129.742 7.92042 130.553 8.78368 131.132 9.90449C131.71 11.0253 132 12.3633 132 13.9215V13.9489C132 15.5157 131.713 16.8609 131.14 17.9861C130.566 19.1112 129.76 19.9744 128.721 20.5758C127.682 21.1772 126.457 21.4779 125.049 21.4779C123.641 21.4779 122.415 21.1758 121.377 20.5701L121.374 20.5672ZM126.917 18.1702C127.441 17.7976 127.845 17.2523 128.13 16.5372C128.414 15.8221 128.557 14.9589 128.557 13.9474V13.9201C128.557 12.9187 128.412 12.0626 128.123 11.3519C127.833 10.6411 127.425 10.1002 126.897 9.72608C126.369 9.35344 125.747 9.1664 125.033 9.1664C124.32 9.1664 123.726 9.35344 123.197 9.72608C122.669 10.1002 122.256 10.6411 121.964 11.3519C121.67 12.0626 121.523 12.9187 121.523 13.9201V13.9474C121.523 14.9589 121.67 15.8221 121.964 16.5372C122.258 17.2523 122.669 17.7961 123.197 18.1702C123.725 18.5443 124.347 18.7299 125.06 18.7299C125.774 18.7299 126.393 18.5429 126.917 18.1702Z" fill="white"/>
<path d="M113.098 4.29473C112.788 3.98251 112.633 3.60699 112.633 3.16817C112.633 2.72935 112.788 2.34519 113.098 2.03586C113.407 1.72652 113.788 1.57257 114.238 1.57257C114.687 1.57257 115.08 1.72652 115.39 2.03586C115.699 2.34519 115.855 2.72215 115.855 3.16817C115.855 3.61419 115.699 3.98107 115.39 4.29473C115.08 4.60838 114.696 4.76376 114.238 4.76376C113.78 4.76376 113.407 4.60694 113.098 4.29473Z" fill="white"/>
<path d="M79.563 4.29473C79.2534 3.98251 79.0978 3.60699 79.0978 3.16817C79.0978 2.72935 79.2534 2.34519 79.563 2.03586C79.8727 1.72652 80.2537 1.57257 80.7032 1.57257C81.1527 1.57257 81.5451 1.72652 81.8548 2.03586C82.1645 2.34519 82.32 2.72215 82.32 3.16817C82.32 3.61419 82.1645 3.98107 81.8548 4.29473C81.5451 4.60838 81.1613 4.76376 80.7032 4.76376C80.2451 4.76376 79.8727 4.60694 79.563 4.29473Z" fill="white"/>
<path d="M117.302 4.17675C117.024 3.89619 116.885 3.56095 116.885 3.16817C116.885 2.77539 117.024 2.43152 117.302 2.15384C117.58 1.87759 117.92 1.73947 118.324 1.73947C118.727 1.73947 119.077 1.87759 119.355 2.15384C119.634 2.43008 119.772 2.76819 119.772 3.16817C119.772 3.56815 119.634 3.89619 119.355 4.17675C119.077 4.45731 118.733 4.59687 118.324 4.59687C117.914 4.59687 117.58 4.45731 117.302 4.17675Z" fill="white"/>
<path d="M120.992 4.09761C120.737 3.84008 120.608 3.53074 120.608 3.16817C120.608 2.8056 120.737 2.48907 120.992 2.23441C121.247 1.97975 121.561 1.8517 121.932 1.8517C122.303 1.8517 122.626 1.97975 122.883 2.23441C123.138 2.48907 123.267 2.79984 123.267 3.16817C123.267 3.53649 123.138 3.83864 122.883 4.09761C122.627 4.35515 122.311 4.48464 121.932 4.48464C121.554 4.48464 121.247 4.35515 120.992 4.09761Z" fill="white"/>
<path d="M124.454 4.01848C124.22 3.78252 124.103 3.49909 124.103 3.16961C124.103 2.84013 124.22 2.5495 124.454 2.31642C124.688 2.08334 124.975 1.9668 125.314 1.9668C125.654 1.9668 125.949 2.08334 126.183 2.31642C126.418 2.5495 126.535 2.83438 126.535 3.16961C126.535 3.50484 126.418 3.78252 126.183 4.01848C125.949 4.25444 125.66 4.37242 125.314 4.37242C124.969 4.37242 124.688 4.25444 124.454 4.01848Z" fill="white"/>
<path d="M127.956 4.01848C127.722 3.78252 127.605 3.49909 127.605 3.16961C127.605 2.84013 127.722 2.5495 127.956 2.31642C128.19 2.08334 128.477 1.9668 128.816 1.9668C129.156 1.9668 129.451 2.08334 129.685 2.31642C129.919 2.5495 130.036 2.83438 130.036 3.16961C130.036 3.50484 129.919 3.78252 129.685 4.01848C129.451 4.25444 129.162 4.37242 128.816 4.37242C128.471 4.37242 128.19 4.25444 127.956 4.01848Z" fill="white"/>
<path d="M37.0666 1.91932H28.5245V4.78966H37.0666V1.91932Z" fill="white"/>
<path d="M89.2653 1.91932H83.2547V4.78966H89.2653V1.91932Z" fill="white"/>
<path d="M89.3837 2.09053C89.4008 2.91639 89.4237 3.74224 89.4437 4.56665L111.502 4.47313V2.18261L89.3837 2.08909V2.09053Z" fill="url(#paint0_linear_118_4455)"/>
<defs>
<linearGradient id="paint0_linear_118_4455" x1="111.502" y1="3.32787" x2="89.3837" y2="3.32787" gradientUnits="userSpaceOnUse">
<stop stop-color="white" stop-opacity="0"/>
<stop offset="1" stop-color="white"/>
</linearGradient>
</defs>
</svg>
