<svg width="815" height="424" viewBox="0 0 815 424" fill="none" xmlns="http://www.w3.org/2000/svg">
<line opacity="0.32" y1="-0.5" x2="102.075" y2="-0.5" transform="matrix(0.626992 -0.779026 0.82381 0.566866 201 317.617)" stroke="#A8AAB7" stroke-dasharray="4 4"/>
<line opacity="0.32" y1="-0.5" x2="100.761" y2="-0.5" transform="matrix(0.893204 -0.449651 0.507394 0.861714 266 237.174)" stroke="#A8AAB7" stroke-dasharray="4 4"/>
<line opacity="0.32" y1="-0.5" x2="135.899" y2="-0.5" transform="matrix(-0.647539 0.762032 -0.809033 -0.587763 444 88.3071)" stroke="#A8AAB7" stroke-dasharray="4 4"/>
<g opacity="0.6" filter="url(#filter0_f_118_3444)">
<path d="M115.73 192.658L103.58 186.159L80 224H81.7522L106.838 198.644L117.581 208.1L182.192 119.25L234.476 187.5L239.872 164L270.394 212.106L281.694 192.658L311.374 222.25L314 224L283.156 174.5L275.932 186.092L237.713 148L228.54 160.38L182.192 86L115.73 192.658Z" fill="url(#paint0_linear_118_3444)"/>
</g>
<g opacity="0.6" filter="url(#filter1_f_118_3444)">
<path d="M727.27 260.197L739.42 255.676L763 282H761.248L736.162 264.361L725.419 270.939L660.808 209.13L608.524 256.609L603.128 240.261L572.606 273.726L561.306 260.197L531.626 280.783L529 282L559.844 247.565L567.068 255.629L605.287 229.13L614.46 237.743L660.808 186L727.27 260.197Z" fill="url(#paint1_linear_118_3444)"/>
</g>
<path d="M579.731 294.086L602.267 282.076L646 352H642.75L596.224 305.146L576.298 322.619L456.465 158.44L359.494 284.554L350.5 229L271.918 308.5L271.918 294.086L216.87 348.766L212 352L269.207 260.533L282.605 281.953L353.489 211.565L370.504 234.442L456.465 97L579.731 294.086Z" fill="url(#paint2_linear_118_3444)"/>
<path d="M468.728 48.0346C465.328 44.788 460.808 43 456 43C451.192 43 446.672 44.7879 443.272 48.0346C439.872 51.2812 438 55.5975 438 60.1888C438 64.7801 439.872 69.0967 443.272 72.3433L455.111 83.6482C455.356 83.8828 455.678 84 456 84C456.322 84 456.644 83.8827 456.89 83.6482L468.728 72.3434C472.128 69.0968 474 64.7802 474 60.1889C474 55.5975 472.128 51.2811 468.728 48.0346ZM461.653 65.5869C460.143 67.0288 458.136 67.823 456 67.823C453.865 67.823 451.857 67.0289 450.347 65.587C448.837 64.1451 448.006 62.228 448.006 60.1888C448.006 58.1497 448.837 56.2326 450.347 54.7907C451.857 53.3488 453.865 52.5547 456 52.5547C458.136 52.5547 460.143 53.3488 461.653 54.7907C463.163 56.2325 463.995 58.1496 463.995 60.1888C463.995 62.228 463.163 64.1451 461.653 65.5869Z" fill="#C6A157"/>
<circle cx="265" cy="238" r="4" fill="#C6A157"/>
<circle cx="265" cy="238" r="6.5" stroke="#C6A157" stroke-opacity="0.25" stroke-width="5"/>
<circle cx="356" cy="192" r="4" fill="#C6A157"/>
<circle cx="356" cy="192" r="6.5" stroke="#C6A157" stroke-opacity="0.25" stroke-width="5"/>
<g opacity="0.5">
<rect x="150" y="341" width="39" height="21" rx="4" fill="white" fill-opacity="0.25"/>
<path d="M154.864 356V347.06H158.632C159.224 347.06 159.728 347.164 160.144 347.372C160.568 347.572 160.892 347.86 161.116 348.236C161.348 348.604 161.464 349.052 161.464 349.58C161.464 349.988 161.352 350.372 161.128 350.732C160.912 351.084 160.564 351.376 160.084 351.608V350.852C160.524 351.02 160.872 351.228 161.128 351.476C161.384 351.724 161.564 352 161.668 352.304C161.772 352.608 161.824 352.928 161.824 353.264C161.824 354.12 161.54 354.792 160.972 355.28C160.412 355.76 159.632 356 158.632 356H154.864ZM156.496 354.56H158.8C159.224 354.56 159.56 354.444 159.808 354.212C160.064 353.972 160.192 353.656 160.192 353.264C160.192 352.872 160.064 352.556 159.808 352.316C159.56 352.076 159.224 351.956 158.8 351.956H156.496V354.56ZM156.496 350.528H158.716C159.052 350.528 159.32 350.432 159.52 350.24C159.72 350.04 159.82 349.784 159.82 349.472C159.82 349.16 159.72 348.912 159.52 348.728C159.32 348.544 159.052 348.452 158.716 348.452H156.496V350.528ZM162.189 356L165.273 347.06H167.385L170.469 356H168.693L168.057 354.08H164.601L163.953 356H162.189ZM165.069 352.64H167.589L166.101 348.188H166.557L165.069 352.64ZM174.299 356.144C173.731 356.144 173.203 356.04 172.715 355.832C172.235 355.624 171.819 355.336 171.467 354.968C171.123 354.592 170.871 354.156 170.711 353.66L172.067 353.072C172.283 353.584 172.595 353.988 173.003 354.284C173.411 354.572 173.871 354.716 174.383 354.716C174.671 354.716 174.919 354.672 175.127 354.584C175.343 354.488 175.507 354.36 175.619 354.2C175.739 354.04 175.799 353.848 175.799 353.624C175.799 353.36 175.719 353.144 175.559 352.976C175.407 352.8 175.175 352.664 174.863 352.568L173.147 352.016C172.451 351.8 171.927 351.476 171.575 351.044C171.223 350.612 171.047 350.104 171.047 349.52C171.047 349.008 171.171 348.556 171.419 348.164C171.675 347.772 172.027 347.468 172.475 347.252C172.931 347.028 173.451 346.916 174.035 346.916C174.571 346.916 175.063 347.012 175.511 347.204C175.959 347.388 176.343 347.648 176.663 347.984C176.991 348.312 177.235 348.7 177.395 349.148L176.051 349.748C175.875 349.3 175.611 348.956 175.259 348.716C174.907 348.468 174.499 348.344 174.035 348.344C173.763 348.344 173.523 348.392 173.315 348.488C173.107 348.576 172.943 348.704 172.823 348.872C172.711 349.032 172.655 349.224 172.655 349.448C172.655 349.696 172.735 349.916 172.895 350.108C173.055 350.292 173.299 350.436 173.627 350.54L175.271 351.056C175.983 351.288 176.515 351.608 176.867 352.016C177.227 352.424 177.407 352.928 177.407 353.528C177.407 354.04 177.275 354.492 177.011 354.884C176.747 355.276 176.383 355.584 175.919 355.808C175.455 356.032 174.915 356.144 174.299 356.144ZM178.636 356V347.06H184.576V348.5H180.268V350.792H184.336V352.232H180.268V354.56H184.576V356H178.636Z" fill="white"/>
</g>
<rect x="497" y="54" width="76" height="21" rx="4" fill="white" fill-opacity="0.25"/>
<path d="M501.864 69V60.06H505.2C505.808 60.06 506.344 60.172 506.808 60.396C507.28 60.612 507.648 60.932 507.912 61.356C508.176 61.772 508.308 62.28 508.308 62.88C508.308 63.472 508.172 63.98 507.9 64.404C507.636 64.82 507.272 65.14 506.808 65.364C506.344 65.588 505.808 65.7 505.2 65.7H503.496V69H501.864ZM503.496 64.26H505.224C505.52 64.26 505.776 64.204 505.992 64.092C506.208 63.972 506.376 63.808 506.496 63.6C506.616 63.392 506.676 63.152 506.676 62.88C506.676 62.6 506.616 62.36 506.496 62.16C506.376 61.952 506.208 61.792 505.992 61.68C505.776 61.56 505.52 61.5 505.224 61.5H503.496V64.26ZM509.056 69V67.32H510.64V69H509.056ZM517.143 69.144C516.487 69.144 515.875 69.028 515.307 68.796C514.739 68.564 514.243 68.24 513.819 67.824C513.395 67.408 513.063 66.92 512.823 66.36C512.591 65.792 512.475 65.18 512.475 64.524C512.475 63.86 512.591 63.248 512.823 62.688C513.055 62.128 513.383 61.64 513.807 61.224C514.231 60.808 514.727 60.488 515.295 60.264C515.863 60.032 516.479 59.916 517.143 59.916C517.807 59.916 518.423 60.032 518.991 60.264C519.559 60.496 520.055 60.82 520.479 61.236C520.903 61.644 521.231 62.128 521.463 62.688C521.703 63.248 521.823 63.86 521.823 64.524C521.823 65.18 521.703 65.792 521.463 66.36C521.223 66.92 520.891 67.408 520.467 67.824C520.043 68.24 519.547 68.564 518.979 68.796C518.419 69.028 517.807 69.144 517.143 69.144ZM517.143 67.656C517.583 67.656 517.987 67.58 518.355 67.428C518.723 67.268 519.043 67.048 519.315 66.768C519.595 66.488 519.807 66.156 519.951 65.772C520.103 65.388 520.179 64.972 520.179 64.524C520.179 64.076 520.103 63.664 519.951 63.288C519.807 62.904 519.595 62.572 519.315 62.292C519.043 62.004 518.723 61.784 518.355 61.632C517.987 61.48 517.583 61.404 517.143 61.404C516.711 61.404 516.311 61.48 515.943 61.632C515.575 61.784 515.251 62.004 514.971 62.292C514.699 62.572 514.487 62.904 514.335 63.288C514.183 63.664 514.107 64.076 514.107 64.524C514.107 64.972 514.183 65.388 514.335 65.772C514.487 66.156 514.699 66.488 514.971 66.768C515.251 67.048 515.575 67.268 515.943 67.428C516.311 67.58 516.711 67.656 517.143 67.656ZM523.647 69V67.32H525.231V69H523.647ZM527.33 69V60.06H530.666C531.274 60.06 531.81 60.172 532.274 60.396C532.746 60.612 533.114 60.932 533.378 61.356C533.642 61.772 533.774 62.28 533.774 62.88C533.774 63.472 533.638 63.98 533.366 64.404C533.102 64.82 532.738 65.14 532.274 65.364C531.81 65.588 531.274 65.7 530.666 65.7H528.962V69H527.33ZM528.962 64.26H530.69C530.986 64.26 531.242 64.204 531.458 64.092C531.674 63.972 531.842 63.808 531.962 63.6C532.082 63.392 532.142 63.152 532.142 62.88C532.142 62.6 532.082 62.36 531.962 62.16C531.842 61.952 531.674 61.792 531.458 61.68C531.242 61.56 530.986 61.5 530.69 61.5H528.962V64.26ZM538.657 69V60.06H541.993C542.601 60.06 543.137 60.172 543.601 60.396C544.073 60.612 544.441 60.932 544.705 61.356C544.969 61.772 545.101 62.28 545.101 62.88C545.101 63.472 544.965 63.98 544.693 64.404C544.429 64.82 544.065 65.14 543.601 65.364C543.137 65.588 542.601 65.7 541.993 65.7H540.289V69H538.657ZM540.289 64.26H542.017C542.313 64.26 542.569 64.204 542.785 64.092C543.001 63.972 543.169 63.808 543.289 63.6C543.409 63.392 543.469 63.152 543.469 62.88C543.469 62.6 543.409 62.36 543.289 62.16C543.169 61.952 543.001 61.792 542.785 61.68C542.569 61.56 542.313 61.5 542.017 61.5H540.289V64.26ZM546.198 69V60.06H552.138V61.5H547.83V63.792H551.898V65.232H547.83V67.56H552.138V69H546.198ZM552.363 69L555.447 60.06H557.559L560.643 69H558.867L558.231 67.08H554.775L554.127 69H552.363ZM555.243 65.64H557.763L556.275 61.188H556.731L555.243 65.64ZM561.398 69V60.06H563.03V64.716L562.586 64.56L566.39 60.06H568.442L564.878 64.284L564.974 63.132L568.55 69H566.63L564.23 65.064L563.03 66.492V69H561.398Z" fill="white"/>
<defs>
<filter id="filter0_f_118_3444" x="66" y="72" width="262" height="166" filterUnits="userSpaceOnUse" color-interpolation-filters="sRGB">
<feFlood flood-opacity="0" result="BackgroundImageFix"/>
<feBlend mode="normal" in="SourceGraphic" in2="BackgroundImageFix" result="shape"/>
<feGaussianBlur stdDeviation="7" result="effect1_foregroundBlur_118_3444"/>
</filter>
<filter id="filter1_f_118_3444" x="515" y="172" width="262" height="124" filterUnits="userSpaceOnUse" color-interpolation-filters="sRGB">
<feFlood flood-opacity="0" result="BackgroundImageFix"/>
<feBlend mode="normal" in="SourceGraphic" in2="BackgroundImageFix" result="shape"/>
<feGaussianBlur stdDeviation="7" result="effect1_foregroundBlur_118_3444"/>
</filter>
<linearGradient id="paint0_linear_118_3444" x1="197" y1="86" x2="228.725" y2="211.728" gradientUnits="userSpaceOnUse">
<stop stop-color="#789291"/>
<stop offset="1" stop-color="#242C2C"/>
</linearGradient>
<linearGradient id="paint1_linear_118_3444" x1="646" y1="186" x2="630.158" y2="276.251" gradientUnits="userSpaceOnUse">
<stop stop-color="#789291"/>
<stop offset="1" stop-color="#242C2C"/>
</linearGradient>
<linearGradient id="paint2_linear_118_3444" x1="429" y1="97" x2="370.568" y2="329.427" gradientUnits="userSpaceOnUse">
<stop stop-color="#789291"/>
<stop offset="1" stop-color="#242C2C"/>
</linearGradient>
</defs>
</svg>
